<svg
  version="1.1"
  viewBox="0 0 1600 1600"
  width="35"
  height="35"
  xmlns="http://www.w3.org/2000/svg"
>
  <path
    transform="translate(537 333)"
    d="m0 0c1.86-0.00218 1.86-0.00218 3.77-0.0044 3.43-0.00301 6.86-0.00158 10.3 0.00178 3.74 0.00255 7.48-7.28e-4 11.2-0.00324 6.55-0.00361 13.1-0.00351 19.6-9.53e-4 9.74 0.00379 19.5 0.00185 29.2-0.00121 17.4-0.00526 34.8-0.00481 52.2-0.00192 15.2 0.00252 30.5 0.00317 45.7 0.00198 1.52-1.15e-4 1.52-1.15e-4 3.06-2.31e-4 4.11-3.11e-4 8.21-6.3e-4 12.3-9.6e-4 38.5-0.00306 77-2.86e-4 116 0.0051 34.2 0.00474 68.4 0.00433 103-4.61e-4 38.4-0.00536 76.9-0.00747 115-0.00439 4.1 3.21e-4 8.21 6.34e-4 12.3 9.43e-4 1.01 7.91e-5 2.02 1.58e-4 3.06 2.4e-4 15.2 0.00113 30.4-1.87e-4 45.6-0.00272 17.3-0.00287 34.6-0.00212 52 0.00328 9.68 0.00292 19.4 0.00315 29-6.46e-4 6.49-0.00226 13-8.11e-4 19.5 0.0035 3.68 0.00235 7.36 0.00325 11-4.06e-4 14-0.0128 28.1 0.0784 42.1 0.513 1.12 0.0304 2.25 0.0607 3.41 0.092 18 0.643 41.3 4.46 55.3 16.5v2c0.672 0.058 1.34 0.116 2.04 0.176 4.15 1.15 7.01 3.42 10.4 6.01 0.695 0.526 1.39 1.05 2.11 1.59 8.38 6.5 17.6 14.2 23.5 23.2v2c0.99 0.33 1.98 0.66 3 1 1.45 1.97 2.72 3.92 4 6 0.563 0.869 1.13 1.74 1.71 2.63 4.54 7.02 8.19 13.9 11.2 21.7 0.805 2.02 1.67 4.01 2.55 5.99 1.55 3.77 2.67 7.53 3.63 11.5 0.169 0.648 0.338 1.3 0.512 1.96 2.89 11.6 2.46 23.4 2.36 35.3-0.0265 3.37-0.0465 6.73-0.0625 10.1-0.0083 0.773-0.0166 1.55-0.0251 2.34-0.00855 1.83 0.0343 3.67 0.0876 5.5 0.33 0.33 0.66 0.66 1 1 0.0979 1.78 0.124 3.57 0.124 5.35 0.00225 1.17 0.00449 2.34 0.00681 3.55-0.00394 1.96-0.00394 1.96-0.00796 3.95 7.39e-4 1.39 0.00192 2.78 0.0035 4.17 0.00309 3.86-1.23e-4 7.72-0.00428 11.6-0.00342 4.18-0.00107 8.37 5.77e-4 12.6 0.00208 7.34 4.2e-4 14.7-0.00364 22-0.00602 10.9-0.00634 21.8-0.00546 32.8 0.00132 18.4-0.00204 36.7-0.00802 55.1-0.00591 18.2-0.00976 36.4-0.0109 54.6-6.87e-5 1.13-1.37e-4 2.26-2.08e-4 3.42-3.38e-4 5.74-6.4e-4 11.5-9.27e-4 17.2-0.0021 40.7-0.00885 81.3-0.0183 122-0.00918 39.5-0.0163 79-0.0205 119-1.97e-4 1.83-1.97e-4 1.83-3.99e-4 3.69-0.00132 12.2-0.00259 24.5-0.00384 36.7-0.00254 24.9-0.00536 49.8-0.00835 74.7-1.37e-4 1.15-2.75e-4 2.29-4.16e-4 3.47-0.00921 76.5-0.0251 153-0.0419 230h-2c0.106 1.06 0.106 1.06 0.214 2.13 0.926 10.4 0.932 20.7 0.919 31 6.76e-4 1.94 0.00165 3.88 0.0029 5.82 0.00147 4.05-6.42e-4 8.09-0.00534 12.1-0.00569 5.14-0.00242 10.3 0.00357 15.4 0.00364 4 0.00245 8-1.28e-4 12-6.59e-4 1.89 1.23e-4 3.79 0.00248 5.68 0.0225 23.2-0.593 46-12.1 66.8-0.962 2-1.92 4-2.88 6-2.87 5.74-6.27 10.9-10.1 16-0.763 1.03-1.53 2.06-2.31 3.12-0.557 0.619-1.11 1.24-1.69 1.88h-2c-0.268 0.804-0.536 1.61-0.812 2.44-0.392 0.846-0.784 1.69-1.19 2.56-0.99 0.33-1.98 0.66-3 1-0.33 0.66-0.66 1.32-1 2-0.33 0.66-0.66 1.32-1 2-0.99 0.33-1.98 0.66-3 1-0.33 0.66-0.66 1.32-1 2-0.33 0.66-0.66 1.32-1 2-0.99 0.33-1.98 0.66-3 1-0.33 0.66-0.66 1.32-1 2-0.33 0.66-0.66 1.32-1 2-0.99 0.33-1.98 0.66-3 1-0.577 0.59-1.16 1.18-1.75 1.79-2.79 2.74-5.9 4.63-9.25 6.59-0.664 0.391-1.33 0.783-2.01 1.19-8.9 5.19-17.3 9.62-27.4 11.9-2.7 0.55-2.7 0.55-5.6 1.64-11.4 3.58-23.3 3.26-35.1 3.32-1.93 0.0162-3.86 0.0334-5.79 0.0515-5.04 0.0454-10.1 0.0804-15.1 0.112-8.1 0.0522-16.2 0.117-24.3 0.188-2.83 0.0228-5.65 0.0391-8.48 0.0547-1.72 0.0134-3.44 0.027-5.16 0.0409-0.787 0.00261-1.57 0.00523-2.39 0.00792-3.95-0.0433-3.95-0.0433-7.64 1.17-1.81 0.0956-3.62 0.126-5.43 0.127-1.73 0.00423-1.73 0.00423-3.49 0.00854-1.27-0.00202-2.54-0.00405-3.85-0.00613-1.35 0.00135-2.69 0.00313-4.04 0.00531-3.66 0.00457-7.33 0.00279-11-3.79e-4 -3.83-0.00253-7.66-1.85e-4 -11.5 0.00139-6.43 0.00182-12.9-5.82e-4 -19.3-0.00534-7.44-0.00544-14.9-0.00368-22.3 0.00183-6.38 0.00453-12.8 0.00518-19.1 0.00256-3.81-0.00156-7.63-0.00176-11.4 0.00154-3.59 0.00288-7.17 8.97e-4 -10.8-0.00489-1.95-0.00196-3.9 0.00102-5.85 0.00413-1.15-0.00282-2.31-0.00564-3.49-0.00854-1.01-3.77e-4 -2.01-7.54e-4 -3.05-0.00114-2.38-0.126-2.38-0.126-4.38-1.13-2.88-0.0953-5.74-0.128-8.63-0.117-1.36-8.32e-4 -1.36-8.32e-4 -2.75-0.00168-3.08-6.48e-4 -6.16 0.0059-9.23 0.0123-2.22 9.95e-4 -4.43 0.00155-6.65 0.00169-6.12 0.00165-12.2 0.00954-18.3 0.0184-5.91 0.00754-11.8 0.0104-17.7 0.0132-12.1 0.00599-24.2 0.0164-36.3 0.0289-17.3 0.0178-34.6 0.0272-51.9 0.0349-6.94 0.00311-13.9 0.00649-20.8 0.00988-0.771 3.75e-4 -1.54 7.5e-4 -2.34 0.00114-18.4 0.00898-36.7 0.0206-55.1 0.0331-0.804 5.44e-4 -1.61 0.00109-2.44 0.00165-18.7 0.0127-37.5 0.0267-56.2 0.043-0.805 6.97e-4 -1.61 0.00139-2.44 0.00211-4.06 0.00352-8.12 0.00704-12.2 0.0106-0.802 6.97e-4 -1.6 0.00139-2.43 0.00211-1.62 0.00141-3.24 0.00282-4.86 0.00422-26.8 0.0233-53.6 0.0397-80.3 0.0487-3.79 0.00128-7.57 0.00265-11.4 0.00408-0.745 2.81e-4 -1.49 5.63e-4 -2.26 8.53e-4 -12 0.00475-23.9 0.0169-35.9 0.032-12 0.0151-24.1 0.0231-36.1 0.0238-6.52 5.94e-4 -13 0.00465-19.6 0.0175-5.98 0.0117-12 0.014-17.9 0.00906-2.15-1.5e-4 -4.31 0.00304-6.46 0.0101-10.1 0.0313-20.1-0.109-30.2-1.13-0.769-0.0776-1.54-0.155-2.33-0.235-4.26-0.49-8.11-1.36-12.1-2.88v-2c-0.99-0.103-1.98-0.206-3-0.312-7.43-1.1-13.3-4.3-19.6-8.21-1.98-1.22-3.96-2.36-6-3.47-3.42-2.02-6.47-4.27-9.58-6.73-1.88-1.46-1.88-1.46-4.8-2.27-2.19-1.94-2.19-1.94-4-4v-2c-0.619-0.247-1.24-0.495-1.88-0.75-2.51-1.48-2.89-2.69-4.12-5.25-0.99-0.33-1.98-0.66-3-1v-2h-2v-2c-1.32-0.66-2.64-1.32-4-2v-2h-2c-0.248-0.949-0.495-1.9-0.75-2.88-0.413-1.03-0.825-2.06-1.25-3.12-0.598-0.253-1.2-0.505-1.81-0.766-3.3-1.86-4.66-4.89-6.44-8.11-0.364-0.625-0.727-1.25-1.1-1.89-1.92-3.42-2.65-5.22-2.65-9.23h-2c-0.962-2.04-1.92-4.08-2.88-6.12-0.534-1.14-1.07-2.27-1.62-3.45-4.63-10.5-8.34-22.8-7.51-34.4h-1c-1.17-8.31-1.14-16.6-1.13-25-0.00104-1.63-0.00253-3.26-0.0044-4.9-0.0039-4.49-0.00156-8.98 0.00178-13.5 0.00254-4.88-7.23e-4 -9.76-0.00324-14.6-0.00361-8.56-0.0035-17.1-9.53e-4 -25.7 0.00378-12.7 0.00185-25.4-0.00121-38.2-0.00527-22.7-0.00481-45.4-0.00192-68.2 0.00251-19.9 0.00317-39.8 0.00198-59.6-7.64e-5 -1.32-1.53e-4 -2.64-2.31e-4 -3.99-3.1e-4 -5.35-6.29e-4 -10.7-9.6e-4 -16-9.17e-4 -14.9-0.00149-29.9-0.00179-44.8-1.36e-5 -0.681-2.73e-5 -1.36-4.14e-5 -2.06-4.09e-4 -21.7 7.18e-4 -43.4 0.00289-65.1 7.02e-5 -0.704 1.4e-4 -1.41 2.13e-4 -2.13 0.00114-11.4 0.00236-22.9 0.00359-34.3 0.00486-45.3 0.00463-90.7-2.31e-4 -136-0.00122-11.4-0.00243-22.9-0.00357-34.3-7.04e-5 -0.704-1.41e-4 -1.41-2.13e-4 -2.13-0.00216-21.7-0.00307-43.3-0.00264-65 1.36e-5 -0.68 2.72e-5 -1.36 4.12e-5 -2.06 3.12e-4 -14.9 9.46e-4 -29.9 0.00187-44.8 3.7e-4 -6.01 7.19e-4 -12 0.00107-18 7.91e-5 -1.31 1.58e-4 -2.63 2.4e-4 -3.98 0.00114-19.9-1.96e-4 -39.8-0.00272-59.6-0.00285-22.6-0.00216-45.2 0.00328-67.8 0.00295-12.7 0.00311-25.3-6.46e-4 -38-0.00223-8.44-8.67e-4 -16.9 0.0035-25.3 0.00239-4.82 0.00316-9.63-4.06e-4 -14.4-0.00321-4.37-0.00189-8.75 0.00318-13.1 0.00102-1.58 3.19e-4 -3.16-0.00221-4.74-0.00316-2.13-2.76e-4 -4.26 0.00424-6.39 6.78e-5 -1.18 1.36e-4 -2.37 2.05e-4 -3.59 0.125-2.75 0.125-2.75 1.13-4.75 0.0542-1.6 0.0929-3.21 0.125-4.81 0.979-13.1 6.39-26.9 12.9-38.2 0.422-0.772 0.843-1.54 1.28-2.34 2.51-4.59 5.12-9.12 7.72-13.7h2c0.186-0.66 0.371-1.32 0.562-2 1.72-3.59 3.98-6.09 6.65-9.02 1.47-1.63 2.86-3.32 4.23-5.04 2.59-2.97 5.31-5.45 8.31-8 3.4-2.92 6.67-5.98 9.96-9.02 2.06-1.72 3.88-2.79 6.3-3.92 0.433-0.495 0.866-0.99 1.31-1.5 2.55-2.26 5.43-2.7 8.69-3.5v-2c0.69-0.242 1.38-0.485 2.09-0.734 4.58-1.64 9.11-3.3 13.5-5.33 16.4-7.43 33.4-9.1 51.2-9.06zm-24.8 2.13v1h5v-1h-5zm769 0 4 1zm-748 130c-0.0606 0.771-0.121 1.54-0.184 2.34-0.0838 1-0.168 2.01-0.254 3.04-0.0812 0.998-0.162 2-0.246 3.02-0.316 2.6-0.316 2.6-1.32 4.6-0.096 2.05-0.125 4.1-0.125 6.15-0.0014 0.641-0.0028 1.28-0.00425 1.94-0.00351 2.17 1.73e-4 4.35 0.00376 6.52-0.00104 1.57-0.00252 3.14-0.0044 4.71-0.00392 4.35-0.00155 8.71 0.00178 13.1 0.00252 4.72-7.17e-4 9.44-0.00324 14.2-0.00362 8.29-0.00349 16.6-9.53e-4 24.9 0.00377 12.3 0.00186 24.6-0.00121 37-0.00528 22-0.00481 44-0.00192 66 0.00251 19.3 0.00317 38.5 0.00198 57.8-7.64e-5 1.28-1.53e-4 2.55-2.31e-4 3.86-3.11e-4 5.18-6.3e-4 10.4-9.6e-4 15.5-0.00228 36.1-0.00267 72.3 0.00106 108 7.02e-5 0.682 1.4e-4 1.36 2.13e-4 2.07 0.00115 11.1 0.00236 22.1 0.00359 33.2 0.00486 43.9 0.00463 87.8-2.31e-4 132-0.00122 11.1-0.00243 22.1-0.00357 33.2-7.04e-5 0.681-1.41e-4 1.36-2.13e-4 2.06-0.00377 36.8-0.00295 73.5-6.02e-4 110 3.21e-4 5.17 6.34e-4 10.3 9.43e-4 15.5 7.91e-5 1.27 1.58e-4 2.54 2.4e-4 3.85 0.00114 19.2-1.97e-4 38.5-0.00272 57.7-0.00285 21.9-0.00216 43.8 0.00328 65.6 0.00295 12.3 0.00311 24.5-6.46e-4 36.8-0.00223 8.17-8.69e-4 16.3 0.0035 24.5 0.0024 4.67 0.00316 9.33-4.06e-4 14-0.0032 4.24-0.0019 8.47 0.00318 12.7 0.00102 1.53 3.16e-4 3.06-0.00221 4.6-0.00316 2.06-2.83e-4 4.13 0.00424 6.19 6.78e-5 1.15 1.36e-4 2.29 2.05e-4 3.48-0.163 2.48-0.163 2.48 1.13 3.54 6.69 1.12 13.3 1.14 20 1.12 1.81 0.00128 1.81 0.00128 3.65 0.00259 3.34 0.00136 6.69-0.00176 10-0.00678 3.64-0.00434 7.28-0.00285 10.9-0.00209 6.38 5.33e-4 12.8-0.00264 19.1-0.00823 9.48-0.00829 19-0.0108 28.4-0.0121 15.9-0.00233 31.9-0.00919 47.8-0.0185 21.8-0.0126 43.6-0.0186 65.3-0.0229 10.1-0.00201 20.3-0.00433 30.4-0.00674 1.02-2.41e-4 2.03-4.82e-4 3.08-7.3e-4 24.2-0.00581 48.4-0.0148 72.5-0.0242 1.06-4.14e-4 2.12-8.27e-4 3.21-0.00125 17.2-0.00672 34.3-0.0136 51.5-0.0206 16.1-0.00649 32.2-0.0129 48.3-0.0192 1.59-6.22e-4 1.59-6.22e-4 3.2-0.00126 24.1-0.00945 48.3-0.018 72.4-0.0237 1.01-2.41e-4 2.03-4.82e-4 3.07-7.3e-4 10.1-0.00239 20.2-0.00461 30.4-0.00661 21.8-0.00432 43.5-0.0114 65.3-0.024 15.9-0.00918 31.7-0.0149 47.6-0.0171 9.43-0.00142 18.9-0.00568 28.3-0.0139 6.29-0.00525 12.6-0.00689 18.9-0.00557 3.59 6.42e-4 7.17-3.11e-4 10.8-0.0057 3.86-0.00577 7.73-0.00379 11.6-0.00105 1.11-0.00291 2.23-0.00583 3.37-0.00883 5.29 0.0102 10.4 0.179 15.6 1.11 3.27 0.0283 6.12-1 9.22-1.98 0.0514-88.9 0.0991-178 0.127-267 4.14e-4 -1.32 8.28e-4 -2.63 0.00126-3.98 0.00876-27.9 0.0169-55.8 0.0244-83.6 0.00374-14 0.00759-28 0.0116-42 5.98e-4 -2.11 0.00119-4.23 0.00179-6.34 0.00918-32.5 0.0209-65.1 0.04-97.6 4.11e-4 -0.7 8.21e-4 -1.4 0.00124-2.12 0.00664-11.3 0.0135-22.6 0.0204-33.9 0.0198-32.5 0.038-65 0.0458-97.5 1.61e-4 -0.668 3.21e-4 -1.34 4.87e-4 -2.02 0.00334-14 6e-3 -28 0.00784-42 8.65e-4 -6.56 0.00184-13.1 0.00289-19.7 2.02e-4 -1.29 4.05e-4 -2.58 6.13e-4 -3.91 0.00355-20.8 0.0175-41.6 0.0353-62.4 0.0176-20.9 0.0244-41.8 0.02-62.7-0.00229-12.4 0.00388-24.9 0.0219-37.3 0.0112-8.29 0.0116-16.6 0.0031-24.9-0.00456-4.73-0.00422-9.47 0.00915-14.2 0.012-4.3 0.0106-8.59-0.00223-12.9-0.00216-1.55 8.19e-4 -3.11 0.00929-4.66 0.0107-2.09 0.00323-4.19-0.00911-6.28 7.02e-4 -1.75 7.02e-4 -1.75 0.00142-3.53-0.123-0.892-0.247-1.78-0.374-2.7-3.21-2.14-4.02-2.25-7.71-2.25-1.47-0.00713-1.47-0.00713-2.96-0.0144-1.08 0.00497-2.16 0.00994-3.27 0.0151-1.15-0.00261-2.29-0.00521-3.47-0.0079-3.2-0.00524-6.4-0.00144-9.61 0.00606-3.48 0.00595-6.95 3.46e-4 -10.4-0.00382-6.1-0.0057-12.2-0.00392-18.3 0.00269-9.07 0.0098-18.1 0.00819-27.2 0.00425-15.3-0.00629-30.5-0.00309-45.8 0.00559-15.2 0.00861-30.3 0.0135-45.5 0.0133-1.41-1.15e-5 -1.41-1.15e-5 -2.86-2.32e-5 -3.83-4.09e-5 -7.66-1.07e-4 -11.5-2.06e-4 -36-9.07e-4 -71.9 0.00905-108 0.0244-31.9 0.0136-63.7 0.0199-95.6 0.0192-2.04-4.04e-5 -4.08-8.08e-5 -6.12-1.21e-4 -1.51-3.05e-5 -1.51-3.05e-5 -3.06-6.17e-5 -5.08-1.01e-4 -10.2-1.91e-4 -15.2-2.7e-4 -1-1.67e-5 -2-3.34e-5 -3.04-5.06e-5 -26.7-3.67e-4 -53.4 0.00419-80 0.0104-0.952 2.2e-4 -1.9 4.41e-4 -2.88 6.67e-4 -3.83 8.88e-4 -7.65 0.00178-11.5 0.00269-13.2 0.00314-26.5 0.00467-39.7 0.00511-17.1 6.02e-4 -34.2 0.00468-51.3 0.0144-8.23 0.00461-16.5 0.00778-24.7 0.00641-34.5-0.0049-68.9 0.136-103 1.15z"
    fill="#FCFCFC"
  />
  <path
    transform="translate(269 65.9)"
    d="m0 0c1.15-0.00302 2.3-0.00603 3.48-0.00914 1.27 0.00177 2.55 0.00354 3.86 0.00536 1.36-0.00165 2.72-0.00373 4.09-0.00622 3.77-0.00559 7.55-0.00489 11.3-0.00322 4.09 7.28e-4 8.19-0.00429 12.3-0.00858 8.13-0.0076 16.3-0.00977 24.4-0.0103 9.74-9.12e-4 19.5-0.00757 29.2-0.0143 23.5-0.0161 47.1-0.022 70.6-0.0267 11.1-0.00233 22.3-0.00594 33.4-0.0097 38.1-0.0128 76.1-0.0236 114-0.027 2.39-2.22e-4 4.78-4.43e-4 7.17-6.65e-4 2.4-2.21e-4 4.79-4.41e-4 7.19-6.61e-4 4.81-4.43e-4 9.61-8.9e-4 14.4-0.00134 1.19-1.09e-4 2.38-2.19e-4 3.61-3.31e-4 38.7-0.00363 77.3-0.0196 116-0.0429 40.9-0.0246 81.7-0.0383 123-0.0395 4.48-1.71e-4 8.96-3.87e-4 13.4-6.34e-4 1.65-8.37e-5 1.65-8.37e-5 3.34-1.69e-4 17.8-0.00115 35.6-0.0122 53.4-0.0267 17.9-0.0143 35.7-0.0176 53.6-0.00956 10.6 0.00447 21.3 5.35e-4 31.9-0.0152 7.09-0.0097 14.2-0.00862 21.3 0.00144 4.05 0.00543 8.09 0.00599 12.1-0.00651 3.67-0.0113 7.35-0.00891 11 0.00467 1.96 0.00362 3.91-0.00761 5.87-0.0193 1.15 7e-3 2.3 0.014 3.49 0.0212 0.995-2.44e-4 1.99-4.88e-4 3.01-7.4e-4 2.47 0.374 2.47 0.374 4.29 1.75 1.68 2.31 1.55 3.99 1.55 6.84 0.00557 1.08 0.0111 2.16 0.0169 3.27-0.00921 1.18-0.0184 2.37-0.0279 3.59 0.00204 1.25 0.00409 2.49 0.0062 3.78 0.0025 3.42-0.0084 6.84-0.0255 10.3-0.015 3.58-0.0139 7.15-0.0147 10.7-0.00369 6-0.0187 12-0.0412 18-0.0289 7.72-0.0392 15.4-0.0437 23.1-0.00397 6.62-0.0165 13.2-0.0303 19.9-0.0041 2.13-0.00703 4.27-0.0098 6.4-0.00579 3.97-0.0205 7.94-0.0363 11.9-0.00112 1.19-0.00224 2.38-0.00339 3.6-0.00571 1.07-0.0114 2.15-0.0173 3.25-0.00297 0.939-0.00595 1.88-0.00901 2.85-0.131 2.11-0.131 2.11-1.13 3.11-1.68 0.1-3.37 0.129-5.06 0.132-1.11 0.00394-2.21 0.00787-3.35 0.0119-1.23-7.37e-4 -2.46-0.00147-3.73-0.00223-1.95 0.00471-1.95 0.00471-3.94 0.00952-3.64 0.00866-7.28 0.011-10.9 0.0124-3.95 0.00262-7.9 0.011-11.8 0.0186-6.93 0.0126-13.9 0.0215-20.8 0.028-10.3 0.00964-20.6 0.025-30.9 0.0414-18.4 0.0292-36.8 0.0527-55.2 0.0737-16.1 0.0184-32.2 0.0387-48.4 0.0608-1.07 0.00146-2.13 0.00293-3.23 0.00443-4.33 0.00594-8.67 0.0119-13 0.0178-40.7 0.0559-81.4 0.106-122 0.153-36.2 0.0422-72.3 0.0896-108 0.141-40.6 0.0581-81.2 0.113-122 0.163-4.33 0.0053-8.66 0.0106-13 0.0159-1.07 0.0013-2.13 0.00261-3.23 0.00395-16.1 0.0198-32.2 0.042-48.3 0.0655-18.3 0.0267-36.6 0.0498-54.9 0.0681-10.3 0.0104-20.5 0.0235-30.8 0.0406-6.85 0.0112-13.7 0.0187-20.5 0.0232-3.9 0.00266-7.81 0.00693-11.7 0.0156-4.2 0.00934-8.41 0.0109-12.6 0.0116-1.21 0.00395-2.43 0.00789-3.68 0.012-6.25-0.00594-12.3-0.326-18.5-1.12-2.46-0.108-4.92-0.174-7.37-0.188-1.18-0.0142-2.37-0.0284-3.59-0.043-3.22-0.00586-3.22-0.00586-6.04 2.23-0.973 4.61-1.14 9.16-1.2 13.9-0.0146 0.981-0.0146 0.981-0.0294 1.98-0.031 2.17-0.0554 4.35-0.0794 6.52-0.0204 1.57-0.0412 3.13-0.0622 4.7-0.0555 4.26-0.104 8.52-0.151 12.8-0.03 2.71-0.0615 5.42-0.0934 8.13-0.457 39.2-0.52 78.5-0.499 118 0.00542 10.2 0.00465 20.4 0.00386 30.5-0.00129 18.8 0.00195 37.5 0.00802 56.3 0.00597 18.5 0.00978 37 0.0109 55.5 6.87e-5 1.16 1.37e-4 2.32 2.08e-4 3.52 3.38e-4 5.9 6.4e-4 11.8 9.27e-4 17.7 0.00209 41.5 0.00878 83.1 0.0183 125 0.00922 40.3 0.0163 80.6 0.0205 121 1.97e-4 1.87 1.97e-4 1.87 3.99e-4 3.78 0.00132 12.5 0.00259 25.1 0.00384 37.6 0.00253 25.5 0.00536 51 0.00835 76.5 1.37e-4 1.17 2.75e-4 2.34 4.16e-4 3.55 0.00916 77.9 0.025 156 0.0419 234-13.3 0.132-26.5 0.262-39.8 0.391-6.16 0.0599-12.3 0.12-18.5 0.182-5.97 0.0594-11.9 0.118-17.9 0.175-2.25 0.0219-4.51 0.0442-6.76 0.067-5.26 0.053-10.5 0.101-15.8 0.135-4.46 0.0294-8.92 0.0928-13.4 0.169-2.3 0.0278-4.59 0.0553-6.89 0.0823-1.08 0.0243-2.16 0.0486-3.27 0.0737-0.99 0.00852-1.98 0.017-3 0.0258-0.875 0.0143-1.75 0.0286-2.65 0.0434-0.699-0.114-1.4-0.227-2.12-0.344-2.43-3.64-2.26-6.31-2.2-10.5 0.00283-0.728 0.00566-1.46 0.00858-2.21 0.0112-2.32 0.0363-4.65 0.0617-6.97 0.01-1.58 0.0192-3.15 0.0273-4.73 0.022-3.86 0.0566-7.72 0.0977-11.6h-1c-0.0171-77.3-0.033-155-0.0423-232-1.38e-4 -1.14-2.76e-4 -2.29-4.18e-4 -3.47-0.00299-24.9-0.00576-49.7-0.0083-74.6-0.00125-12.2-0.00254-24.4-0.00387-36.6-1.31e-4 -1.21-2.62e-4 -2.43-3.96e-4 -3.68-0.00426-39.3-0.0118-78.7-0.021-118-0.00943-40.4-0.0156-80.9-0.0176-121-2.88e-4 -5.71-6.14e-4 -11.4-9.62e-4 -17.1-6.74e-5 -1.12-1.35e-4 -2.25-2.04e-4 -3.41-0.00118-18.1-0.00582-36.2-0.0118-54.3-0.00589-18.2-0.00814-36.4-0.00667-54.6 7.61e-4 -10.8-0.00127-21.6-0.0073-32.4-0.00375-7.22-0.00387-14.4-0.00103-21.7 0.00151-4.11 0.00144-8.23-0.00305-12.3-0.00406-3.75-0.00347-7.49 7.43e-4 -11.2 0.00104-1.97-0.0028-3.95-0.00687-5.92 0.0125-6.62 0.265-13.1 0.905-19.7 0.351-4.04 0.35-8.06 0.323-12.1-0.00146-0.868-0.00292-1.74-0.00443-2.63-0.00376-1.86-0.00984-3.72-0.0181-5.57-0.0129-2.94-0.0193-5.87-0.0241-8.81-0.0113-6.22-0.0306-12.4-0.051-18.7-0.0236-7.25-0.0439-14.5-0.0559-21.7-0.0065-2.9-0.019-5.8-0.0317-8.7-0.00363-1.76-0.00698-3.52-0.01-5.28-0.00517-0.81-0.0103-1.62-0.0157-2.45-1.81e-4 -1.88 0.0509-3.76 0.113-5.64 0.495-0.495 0.495-0.495 1-1 0.124-1.26 0.248-2.52 0.375-3.81 1.23-11.9 5.41-21.9 10.8-32.4 0.962-1.9 0.962-1.9 1.93-4.46 1.06-2.62 2.44-4.91 3.94-7.31 0.33-0.66 0.66-1.32 1-2h2c0.433-1.11 0.433-1.11 0.875-2.25 1.64-4.01 3.06-6.71 6.12-9.75 0.904-1.08 1.8-2.16 2.69-3.25 2.88-3.39 6.05-6.24 9.43-9.12 3.21-2.77 6.14-5.81 9.01-8.94 9.75-9.11 20.8-14.3 32.9-19.7 0.799-0.362 1.6-0.724 2.42-1.1 13.4-6.05 27-7.92 41.6-8.66 3.72-0.303 6.53-1.37 10.4-1.37zm-5.36 1.13 4 1zm774 0v1h5v-1h-5zm10 0v1h11v-1h-11zm-909 92 1 2zm-5 22v5h1v-5h-1zm-1 101v39h1v-39h-1z"
    fill="#FDFDFD"
  />
  <path transform="translate(398,493)" d="m0 0h1v878h-1v-878z" fill="#FDFDFD" />
  <path
    transform="translate(703,1531)"
    d="m0 0h355v1h-355v-1z"
    fill="#000102"
  />
  <path transform="translate(1399,1242)" d="m0 0h1v55h-1v-55z" fill="#000102" />
  <path transform="translate(132,230)" d="m0 0h1v40h-1v-40z" fill="#FDFDFD" />
  <path transform="translate(532,1159)" d="m0 0h1v36h-1v-36z" fill="#000102" />
  <path transform="translate(532,1287)" d="m0 0h1v30h-1v-30z" fill="#000102" />
  <path transform="translate(1199,1531)" d="m0 0h26v1h-26v-1z" fill="#000102" />
  <path transform="translate(532,501)" d="m0 0h1v16h-1v-16z" fill="#000102" />
  <path transform="translate(532,478)" d="m0 0h1v15h-1v-15z" fill="#000102" />
  <path transform="translate(650,1531)" d="m0 0h14v1h-14v-1z" fill="#000102" />
  <path transform="translate(669,1531)" d="m0 0h12v1h-12v-1z" fill="#000102" />
  <path transform="translate(688,1531)" d="m0 0h9v1h-9v-1z" fill="#000102" />
  <path transform="translate(634,1531)" d="m0 0h7v1h-7v-1z" fill="#000102" />
  <path
    transform="translate(1399,1305)"
    d="m0 0c0.33 0.99 0.66 1.98 1 3h-2c0.33-0.99 0.66-1.98 1-3z"
    fill="#323334"
  />
  <path transform="translate(644,1531)" d="m0 0c3 1 3 1 3 1z" fill="#000102" />
  <path
    transform="translate(1398,488)"
    d="m0 0h2c-0.33 0.66-0.66 1.32-1 2-0.33-0.66-0.66-1.32-1-2z"
    fill="#000102"
  />
</svg>