<svg
  version="1.1"
  viewBox="0 0 1600 1600"
  width="35"
  height="35"
  xmlns="http://www.w3.org/2000/svg"
>
  <path
    transform="translate(335 199)"
    d="m0 0c0.749-0.00145 1.5-0.00291 2.27-0.0044 2.54-0.00368 5.07-1.65e-4 7.61 0.00326 1.83-0.00115 3.65-0.00274 5.48-0.00473 5.04-0.0042 10.1-0.0021 15.1 9.86e-4 5.43 0.00225 10.9-0.00123 16.3-0.00398 10.6-0.00446 21.3-0.00348 31.9-5.87e-4 8.65 0.00225 17.3 0.00257 25.9 0.00148 1.84-2.3e-4 1.84-2.3e-4 3.72-4.64e-4 2.5-3.2e-4 4.99-6.44e-4 7.49-9.73e-4 22.8-0.00277 45.5 1.08e-4 68.3 0.00534 20.8 0.00475 41.6 0.00432 62.4-4.61e-4 23.3-0.00535 46.7-0.00746 70-0.00439 2.49 3.19e-4 4.97 6.33e-4 7.46 9.43e-4 1.84 2.31e-4 1.84 2.31e-4 3.71 4.68e-4 8.64 8.65e-4 17.3-5.97e-4 25.9-0.00295 10.5-0.0028 21-0.00206 31.6 0.00328 5.37 0.00264 10.7 0.00364 16.1 3.51e-4 4.91-0.00297 9.83-0.00137 14.7 0.00398 1.78 0.00112 3.57 5.36e-4 5.35-0.00188 2.41-0.00301 4.82 5.08e-5 7.24 0.00472 0.702-0.00234 1.4-0.00468 2.13-0.00709 3 0.0117 5.28 0.174 8.15 1.13 1.48-0.248 1.48-0.248 3-0.5 3-0.5 3-0.5 6 0.5 5.2 0.242 5.2 0.242 10.2-0.688 1.75-0.312 1.75-0.312 3.83 0.808 1.92 1.88 1.92 1.88 2.4 4.48-0.00888 1.04-0.0178 2.08-0.0269 3.16-3.02e-4 1.18-6.04e-4 2.36-9.16e-4 3.58-0.0206 1.28-0.0413 2.55-0.0626 3.86-0.00849 1.96-0.00849 1.96-0.0172 3.96-0.0153 3.47-0.0545 6.93-0.0988 10.4-0.0409 3.54-0.0592 7.08-0.0793 10.6-0.0429 6.94-0.111 13.9-0.195 20.8h-2v69c-9.47 0.0606-18.9 0.121-28.7 0.184-6.06 0.0406-12.1 0.0814-18.2 0.123-9.58 0.0659-19.2 0.131-28.8 0.191-6.99 0.0435-14 0.0899-21 0.14-3.68 0.0261-7.37 0.0509-11.1 0.0722-16.1 0.0939-32.2 0.359-48.2 0.94-8.55 0.308-17.1 0.499-25.6 0.484-1.95 0.00198-1.95 0.00198-3.93 4e-3 -3.47 0.00265-6.93-0.00171-10.4-0.00824-2.22-0.00366-4.45-0.00521-6.67-0.00626-24.5-0.0141-49-0.296-73.5-0.657-28.3-0.415-56.6-0.578-84.9-0.588-3.06-0.0016-6.11-0.00515-9.17-0.00919-4.82-0.00587-9.64-0.00607-14.5-0.00175-1.77 9.86e-4 -3.54 4.34e-4 -5.31-0.00184-9.05-0.00956-18 0.181-27 0.912-4.71 0.337-9.41 0.35-14.1 0.322-0.957-0.00141-1.91-0.00283-2.9-0.00429-2.99-0.00551-5.99-0.018-8.98-0.0309-2.06-0.00503-4.11-0.00959-6.17-0.0137-4.99-0.0109-9.97-0.0281-15-0.0488-0.864 7.2-1.15 14.3-1.14 21.5-0.00426 1.69-0.00426 1.69-0.00861 3.41-0.00832 3.77-0.00961 7.55-0.0109 11.3-0.00402 2.74-0.00953 5.47-0.015 8.21-0.011 5.95-0.0184 11.9-0.0234 17.9-0.00743 8.86-0.0205 17.7-0.0347 26.6-0.0239 15-0.0431 29.9-0.0596 44.9-0.0166 15-0.0351 29.9-0.0561 44.9-0.00132 0.937-0.00264 1.87-0.00399 2.84-0.00536 3.81-0.0107 7.62-0.0161 11.4-0.0493 34.8-0.0939 69.7-0.136 105-0.0387 32.4-0.08 64.7-0.125 97.1-0.00136 0.981-0.00273 1.96-0.00413 2.97-0.0055 3.96-0.011 7.92-0.0165 11.9-0.00275 1.98-0.00549 3.95-0.00824 5.93-0.00274 1.97-0.00548 3.95-0.00823 5.92-0.045 32.4-0.0874 64.7-0.129 97.1-0.0121 9.3-0.0243 18.6-0.0368 27.9-0.0332 24.7-0.0648 49.5-0.0931 74.2-0.00148 1.29-0.00148 1.29-0.00299 2.61-0.118 104-0.0906 207-0.0729 311 0.789-1.56e-4 1.58-3.12e-4 2.39-4.73e-4 85.8-0.0169 172-0.0327 258-0.0419 1.28-1.38e-4 2.56-2.76e-4 3.89-4.18e-4 27.2-0.00292 54.4-0.00564 81.6-0.00812 13.7-0.00125 27.3-0.00253 41-0.00385 2.06-1.99e-4 4.12-3.97e-4 6.18-5.95e-4 31.7-0.00306 63.4-0.00697 95.1-0.0133 0.682-1.37e-4 1.36-2.74e-4 2.07-4.15e-4 11-0.00221 22-0.0045 33-0.00679 46-0.00959 92-0.016 138-0.018 6.4-2.88e-4 12.8-6.14e-4 19.2-9.62e-4 1.26-6.74e-5 2.52-1.35e-4 3.82-2.04e-4 20.3-0.00118 40.5-0.00582 60.8-0.0118 20.4-0.00589 40.8-0.00814 61.1-0.00667 12.1 7.61e-4 24.2-0.00127 36.3-0.0073 8.09-0.00375 16.2-0.00386 24.3-0.00103 4.61 0.00151 9.22 0.00145 13.8-0.00305 4.2-0.00407 8.4-0.00346 12.6 7.43e-4 1.5 7.09e-4 3.01-2.28e-4 4.51-0.0031 9.67-0.0173 19.2 0.366 28.9 1.13v-1h9c-0.00114-0.978-0.00228-1.96-0.00345-2.96-0.0672-57.9-0.119-116-0.15-174-0.00374-6.95-0.00763-13.9-0.0116-20.8-3.92e-4 -0.692-7.85e-4 -1.38-0.00119-2.1-0.0128-22.4-0.0353-44.9-0.0629-67.3-0.0291-23.7-0.0471-47.4-0.0534-71.1-0.00412-14.2-0.0172-28.4-0.0415-42.6-0.0158-9.73-0.0207-19.5-0.0168-29.2 0.00193-5.62-0.0011-11.2-0.0171-16.9-0.0145-5.14-0.0154-10.3-0.00508-15.4 0.00127-1.86-0.00259-3.73-0.012-5.59-0.012-2.52-0.00561-5.05 0.00551-7.57-0.00788-0.732-0.0158-1.46-0.0239-2.22 0.0313-3.12 0.23-5.22 1.78-7.96 2.13-2.05 3.27-2.04 6.2-2.04 0.942-0.00694 1.88-0.0139 2.85-0.021 1.03 0.0128 2.06 0.0256 3.13 0.0388 1.09-0.00219 2.18-0.00438 3.3-0.00664 3.61-0.00232 7.22 0.024 10.8 0.0508 2.51 0.00492 5.02 0.00822 7.52 0.00996 5.26 0.00765 10.5 0.0277 15.8 0.0591 6.74 0.0402 13.5 0.0577 20.2 0.0673 6.43 0.01 12.9 0.0299 19.3 0.0511 1.22 0.0034 2.45 0.00679 3.71 0.0103 3.48 0.0116 6.96 0.0302 10.4 0.051 1.02 0.00269 2.04 0.00538 3.09 0.00815 5.17 0.0386 10.2 0.287 15.3 1.05 2 0.238 2 0.238 3.96-0.546 2-0.339 2-0.339 4.09 0.83 1.91 1.83 1.91 1.83 2.41 4.09 0.00152 0.892 0.00304 1.78 0.0046 2.7 0.0114 1.03 0.0229 2.06 0.0347 3.12-0.00776 1.14-0.0155 2.27-0.0235 3.44 0.0075 1.2 0.015 2.41 0.0227 3.65 0.0168 3.35 0.0157 6.71 0.00709 10.1-0.00493 3.62 0.0131 7.23 0.0284 10.9 0.0234 6.28 0.0321 12.6 0.0309 18.9-0.00168 9.16 0.0188 18.3 0.0444 27.5 0.0412 15 0.0644 29.9 0.0765 44.9 0.0117 14.4 0.0317 28.7 0.0635 43.1 0.00194 0.875 0.00387 1.75 0.00587 2.65 0.00783 3.52 0.0157 7.05 0.0237 10.6 0.143 63.1 0.194 126 0.178 189h-2c-0.00497 0.858-0.00497 0.858-0.01 1.73-0.0815 14-0.174 27.9-0.277 41.9-0.05 6.75-0.0964 13.5-0.134 20.3-0.0366 6.52-0.0834 13-0.136 19.6-0.0185 2.48-0.0336 4.97-0.0453 7.45-0.017 3.49-0.046 6.98-0.0778 10.5-0.00216 1.02-0.00432 2.03-0.00655 3.08-0.102 8.79-1.22 17.3-4.31 25.5l-1.23 3.56c-3.44 9.66-7.68 18.5-12.8 27.4-0.512 0.896-1.02 1.79-1.55 2.71-1.08 1.81-2.25 3.56-3.45 5.29h-2l-0.688 2.19c-1.59 3.4-3.57 5.26-6.31 7.81-0.825 0.825-1.65 1.65-2.5 2.5l-7.5 7.5c-0.804 0.825-1.61 1.65-2.44 2.5-13.7 13.4-31.4 20.9-49.6 26.5-0.917 0.342-1.83 0.683-2.78 1.04-4 1.2-7.89 1.62-12 2.03-5 0.0732-5 0.0732-9.19 1.94-2.64 0.126-5.26 0.186-7.9 0.205-0.834 0.0099-1.67 0.0198-2.53 0.03-2.82 0.032-5.64 0.0567-8.45 0.0811-2.03 0.0207-4.06 0.0417-6.09 0.063-4.33 0.0443-8.67 0.085-13 0.123-5.19 0.0461-10.4 0.0995-15.6 0.156-26.3 0.282-52.5 0.37-78.8 0.361-2.68-9.08e-4 -5.35-0.00146-8.03-0.00192-15.2-0.00261-30.4-0.00907-45.5-0.0165-2.11-0.00103-4.21-0.00205-6.32-0.00306-74-0.0357-148-0.0881-222-0.157-1.07-9.96e-4 -2.14-0.00199-3.24-0.00302-24.2-0.0226-48.5-0.046-72.7-0.0704-10.1-0.0101-20.2-0.0201-30.3-0.0301-1.12-0.0011-2.23-0.00221-3.38-0.00334-36.4-0.0358-72.8-0.0618-109-0.0826-37.6-0.0216-75.2-0.053-113-0.0966-5.31-0.00616-10.6-0.0122-15.9-0.0182-1.04-0.00118-2.09-0.00236-3.17-0.00358-16.7-0.0186-33.5-0.0271-50.2-0.0317-16.8-0.00481-33.6-0.0205-50.4-0.0472-9.95-0.0155-19.9-0.0228-29.9-0.0181-6.66 0.00233-13.3-0.00635-20-0.0236-3.78-0.00947-7.57-0.0146-11.3-0.00607-14.1 0.0284-28.1-0.214-42.1-1.68-1.07-0.108-2.15-0.216-3.25-0.327-7.1-0.842-13.3-2.7-19.9-5.4-1.09-0.42-2.19-0.84-3.31-1.27-14.8-6.07-28.6-14-39.7-25.7-1.85-1.92-3.76-3.62-5.81-5.32-2.8-2.33-4.98-4.84-7.19-7.75-1.43-1.49-2.88-2.89-4.44-4.25-1.82-2.04-3.07-4.27-4.39-6.66-1.36-2.42-2.79-4.79-4.23-7.16-2.57-4.28-4.99-8.54-6.83-13.2-0.807-2-1.66-3.98-2.55-5.95-4.99-11.1-6.74-20.8-7.22-33-0.208-3.79-0.208-3.79-1.35-7.14-1.01-3.74-1.24-6.8-1.24-10.7-0.00268-0.669-0.00536-1.34-0.00812-2.03-0.00653-2.24 0.00115-4.48 0.00878-6.72-0.00178-1.63-0.00444-3.26-0.0079-4.89-0.00697-4.49-0.00145-8.98 0.00606-13.5 0.00596-4.88 3.43e-4 -9.76-0.00382-14.6-0.00569-8.56-0.00393-17.1 0.00269-25.7 0.0098-12.7 0.00819-25.5 0.00425-38.2-0.00628-21.4-0.0031-42.8 0.00559-64.2 0.00861-21.2 0.0135-42.4 0.0133-63.6-7.65e-6 -1.32-1.53e-5 -2.64-2.32e-5 -3.99-3.74e-5 -5.35-1.04e-4 -10.7-2.06e-4 -16-2.78e-4 -15 1.11e-4 -29.9 9.89e-4 -44.9 5.95e-5 -1.02 5.95e-5 -1.02 1.2e-4 -2.06 0.00131-21.7 0.00548-43.4 0.0117-65.1 2.03e-4 -0.704 4.06e-4 -1.41 6.15e-4 -2.13 0.00331-11.4 0.0068-22.9 0.0103-34.3 0.0139-45.4 0.0205-90.7 0.0198-136-2.04e-5 -1.43-4.06e-5 -2.87-6.06e-5 -4.3-4.02e-5 -2.86-8.1e-5 -5.73-1.22e-4 -8.59-9.14e-5 -6.42-1.76e-4 -12.8-2.47e-4 -19.3-1.58e-5 -1.42-3.22e-5 -2.84-4.93e-5 -4.27-4.45e-4 -38 0.00402-75.9 0.0104-114 1.1e-4 -0.663 2.2e-4 -1.33 3.34e-4 -2.01 9.97e-4 -6 2e-3 -12 0.00302-18 0.00316-18.6 0.00467-37.1 0.00511-55.7 5.96e-4 -23.9 0.00457-47.8 0.0144-71.7 0.00513-12.7 0.00752-25.3 6e-3 -38-7.31e-4 -8.44 0.00214-16.9 0.00804-25.3 0.00327-4.82 0.00491-9.64 0.00224-14.5-0.00239-4.37-2.77e-4 -8.75 0.00562-13.1 0.00131-1.58 9.08e-4 -3.16-0.00132-4.75-0.00276-2.13 5.18e-4 -4.26 0.00544-6.39 2.91e-4 -1.18 5.83e-4 -2.37 8.83e-4 -3.59 0.126-2.62 0.126-2.62 1.13-3.62 0.328-2.12 0.612-4.25 0.875-6.38 3.26-23.6 14.2-48.7 31.1-65.6 0.921-1.1 1.84-2.21 2.75-3.31 2.81-3.32 5.89-6.12 9.22-8.91 2.14-1.82 2.14-1.82 4.38-4.2 2.84-2.76 5.77-4.95 9.03-7.2 1.08-0.755 2.16-1.51 3.27-2.29 3.37-2.1 6.69-3.58 10.4-5.09 2.32-1.15 4.63-2.32 6.94-3.5 4.94-2.5 9.83-4.69 15.1-6.5 0.786-0.333 1.57-0.665 2.38-1.01 8-3.03 16.9-3.27 25.4-3.65 5-0.241 9.33-1.48 14.4-1.47zm-111 57.1 1 2zm1174 852v59h1v-59h-1z"
    fill="#FDFDFD"
  />
  <path
    transform="translate(945 198)"
    d="m0 0c1.17-0.00827 1.17-0.00827 2.35-0.0167 2.62-0.0137 5.24 0.00134 7.85 0.0161 1.89-0.00389 3.78-0.00953 5.67-0.0168 5.21-0.0148 10.4-0.00454 15.6 0.00974 5.61 0.0111 11.2-8.21e-4 16.8-0.00984 11-0.014 22-0.00636 33 0.00868 12.8 0.0168 25.6 0.0137 38.4 0.00991 23.5-0.00606 47 0.00974 70.5 0.0352 21.5 0.0231 42.9 0.0285 64.4 0.0183 5.5-0.0026 11-0.00519 16.5-0.0076 0.677-2.97e-4 1.35-5.95e-4 2.05-9.01e-4 17.9-0.00761 35.9-0.00115 53.8 0.0096 2.57 0.00153 5.14 0.00305 7.71 0.00456 1.9 0.00114 1.9 0.00114 3.83 0.0023 8.92 0.00475 17.8 0.00289 26.8-0.00136 10.9-0.00492 21.7 0.00102 32.6 0.0209 5.55 0.00989 11.1 0.015 16.6 0.00711 5.08-0.00703 10.2-3.19e-4 15.2 0.0176 1.84 0.00406 3.68 0.00301 5.52-0.00352 2.49-0.00809 4.99 0.00209 7.48 0.017 1.08-0.0101 1.08-0.0101 2.19-0.0204 3.02 0.0353 5.19 0.269 7.89 1.66 1.93 2.16 2.05 3.15 2.05 6.02 0.00796 0.877 0.0159 1.75 0.0241 2.66-0.0117 0.964-0.0233 1.93-0.0353 2.92 0.00513 1.54 0.00513 1.54 0.0104 3.1 0.00661 3.45-0.0155 6.89-0.0373 10.3-0.00113 2.46-4.96e-4 4.93 0.00177 7.39 9.12e-4 5.31-0.0105 10.6-0.033 15.9-0.0325 7.68-0.0429 15.4-0.048 23-0.00876 12.5-0.0354 24.9-0.0732 37.4-0.0367 12.1-0.065 24.2-0.082 36.3-0.00105 0.746-0.0021 1.49-0.00318 2.26-0.00522 3.74-0.0103 7.48-0.0152 11.2-0.0415 31.1-0.112 62.1-0.201 93.2h-2c0.33 69.6 0.66 139 1 211-9.09 0.606-18 1.16-27.1 1.25-1.11 0.0147-2.22 0.0294-3.36 0.0446-3.61 0.0462-7.21 0.086-10.8 0.124-1.24 0.0139-2.48 0.0277-3.76 0.042-5.87 0.0653-11.7 0.127-17.6 0.184-6.75 0.0654-13.5 0.144-20.3 0.233-5.88 0.0766-11.8 0.137-17.6 0.191-2.49 0.0253-4.99 0.0556-7.48 0.0912-3.47 0.0482-6.94 0.0775-10.4 0.102-1.03 0.0186-2.06 0.0371-3.13 0.0563-1.41 0.00427-1.41 0.00427-2.85 0.00862-1.23 0.0133-1.23 0.0133-2.48 0.0268-2.68-0.454-3.42-1.26-5.11-3.36-0.373-1.87-0.373-1.87-0.369-4.02-0.00597-0.821-0.0119-1.64-0.0181-2.49 0.00874-0.902 0.0175-1.8 0.0265-2.73-0.00256-0.958-0.00513-1.92-0.00777-2.9-0.00496-3.22 0.0116-6.45 0.028-9.67 8.46e-4 -2.31 3.72e-4 -4.61-0.00133-6.92-8.63e-4 -6.27 0.0168-12.5 0.0377-18.8 0.0187-6.55 0.0205-13.1 0.0241-19.7 0.00777-11 0.027-22 0.0538-33 0.0275-11.3 0.0488-22.7 0.0615-34 7.88e-4 -0.698 0.00158-1.4 0.00239-2.12 0.00392-3.5 0.00771-7 0.0114-10.5 0.0311-29.1 0.0842-58.1 0.151-87.2-1.13 0.788-2.25 1.58-3.37 2.37-0.626 0.44-1.25 0.88-1.9 1.33-2.09 1.56-3.71 3.28-5.36 5.3-2.66 3.16-5.41 6.11-8.38 9-0.825 0.825-1.65 1.65-2.5 2.5-5.83 5.83-11.7 11.7-17.5 17.5-0.846 0.887-1.69 1.77-2.56 2.69-2.44 2.31-2.44 2.31-4.62 3.38-2.35 1.22-2.68 2.61-3.81 4.94-0.99 0.33-1.98 0.66-3 1-0.289 0.578-0.577 1.16-0.875 1.75-1.52 3.04-3.61 4.99-6.12 7.25h-2c-0.227 0.578-0.454 1.16-0.688 1.75-1.65 2.83-3.75 4.23-6.31 6.25-0.722 0.908-1.44 1.82-2.19 2.75-0.598 0.743-1.2 1.49-1.81 2.25h-2c-0.0619 0.557-0.124 1.11-0.188 1.69-1.72 4.89-6.32 7.73-10.3 10.8-3.74 2.87-6.6 5.82-9.5 9.56-4.07 4.93-8.31 9.34-13.2 13.5-1.82 1.51-1.82 1.51-3.41 3.24-1.39 1.3-1.39 1.3-3.39 1.3-0.0941 0.593-0.188 1.19-0.285 1.8-0.874 2.69-1.98 3.67-4.15 5.45-0.617 0.521-1.23 1.04-1.87 1.58-1.69 1.17-1.69 1.17-3.69 1.17-0.186 0.701-0.371 1.4-0.562 2.12-1.71 3.41-3.71 5.03-6.64 7.4-2.44 2-4.6 4.22-6.8 6.47-1.67 1.67-3.33 3.33-5 5-0.722 0.763-1.44 1.53-2.19 2.31-1.81 1.69-1.81 1.69-3.81 1.69-0.186 0.701-0.371 1.4-0.562 2.12-1.7 3.41-3.71 5.03-6.63 7.4-3.26 2.66-6.11 5.74-8.99 8.79-1.81 1.69-1.81 1.69-3.81 1.69-0.186 0.701-0.371 1.4-0.562 2.12-1.69 3.38-3.61 4.87-6.51 7.21-2.03 1.76-3.7 3.62-5.43 5.67-3.16 3.7-6.49 7.21-10.5 10h-2c-0.186 0.701-0.371 1.4-0.562 2.12-1.69 3.38-3.61 4.87-6.51 7.2-2.05 1.78-3.74 3.67-5.49 5.73-2.91 3.42-5.83 6.26-9.44 8.94h-2c-0.247 0.804-0.495 1.61-0.75 2.44-0.412 0.846-0.825 1.69-1.25 2.56-1.33 0.333-2.67 0.667-4 1-0.268 0.722-0.536 1.44-0.812 2.19-1.48 3.51-3.47 4.98-6.38 7.34-3.26 2.66-6.11 5.74-8.99 8.79-1.81 1.69-1.81 1.69-3.81 1.69-0.33 1.32-0.66 2.64-1 4-0.928 0.0928-0.928 0.0928-1.88 0.188-0.701 0.268-1.4 0.536-2.12 0.812-0.268 0.722-0.536 1.44-0.812 2.19-1.48 3.51-3.47 4.98-6.39 7.34-2 1.59-2 1.59-4.43 4.1-2.37 2.37-2.37 2.37-5.06 4.44-2.4 1.75-2.4 1.75-3.38 4.12-0.464 0.897-0.464 0.897-0.938 1.81-0.66 0.144-1.32 0.289-2 0.438-0.66 0.186-1.32 0.371-2 0.562-0.268 0.722-0.536 1.44-0.812 2.19-1.48 3.51-3.47 4.98-6.38 7.34-3.26 2.66-6.11 5.74-8.99 8.79-1.81 1.69-1.81 1.69-3.81 1.69-0.186 0.701-0.371 1.4-0.562 2.12-1.69 3.38-3.62 4.88-6.52 7.21-2.01 1.74-3.65 3.57-5.36 5.6-3 3.53-6.24 6.53-9.77 9.52-1.95 1.63-1.95 1.63-4.17 3.98-1.62 1.56-1.62 1.56-3.62 1.56-0.186 0.701-0.371 1.4-0.562 2.12-1.71 3.41-3.71 5.03-6.64 7.4-2.44 2-4.6 4.22-6.8 6.47-2.46 2.52-4.82 4.86-7.62 7-2.47 1.85-2.47 1.85-3.75 4.38-1.91 3.08-4.13 4.92-6.91 7.2-1.88 1.51-1.88 1.51-4.02 3.8-1.69 1.62-1.69 1.62-3.69 1.62-0.402 0.897-0.402 0.897-0.812 1.81-1.19 2.2-2.36 3.5-4.19 5.19l-1.56 1.69c-1.44 1.31-1.44 1.31-3.44 1.31-0.165 0.681-0.33 1.36-0.5 2.06-1.88 3.68-4.33 5.62-7.47 8.23-3.13 2.62-5.94 5.53-8.72 8.52-1.31 1.19-1.31 1.19-3.31 1.19-0.33 1.32-0.66 2.64-1 4-0.928 0.0928-0.928 0.0928-1.88 0.188-0.701 0.268-1.4 0.536-2.12 0.812-0.289 0.742-0.577 1.48-0.875 2.25-1.59 3.87-3.76 5.29-7.12 7.75h-2c-0.33 1.32-0.66 2.64-1 4-0.928 0.124-0.928 0.124-1.88 0.25-2.28 0.543-2.28 0.543-3.19 2.62-0.309 0.701-0.619 1.4-0.938 2.12-1.44 1.56-1.44 1.56-3 3l-1.56 1.69c-1.44 1.31-1.44 1.31-3.44 1.31-0.186 0.701-0.371 1.4-0.562 2.12-1.71 3.42-3.75 5.08-6.69 7.45-1.91 1.51-1.91 1.51-4.06 3.8-1.69 1.62-1.69 1.62-3.69 1.62-0.33 1.32-0.66 2.64-1 4-1.32 0.33-2.64 0.66-4 1-0.33 1.32-0.66 2.64-1 4-0.928 0.0928-0.928 0.0928-1.88 0.188-0.701 0.268-1.4 0.536-2.12 0.812-0.268 0.722-0.536 1.44-0.812 2.19-1.48 3.51-3.47 4.98-6.39 7.34-2 1.59-2 1.59-4.43 4.1-2.38 2.38-2.38 2.38-5.06 4.44-2.4 1.75-2.4 1.75-3.38 4.12-0.309 0.598-0.619 1.2-0.938 1.81-0.66 0.144-1.32 0.289-2 0.438-0.66 0.186-1.32 0.371-2 0.562-0.268 0.722-0.536 1.44-0.812 2.19-1.48 3.51-3.47 4.98-6.38 7.34-3.26 2.66-6.11 5.74-8.99 8.79-1.81 1.69-1.81 1.69-3.81 1.69-0.278 1.05-0.278 1.05-0.562 2.12-1.69 3.38-3.62 4.88-6.52 7.21-2.01 1.74-3.65 3.57-5.36 5.6-3 3.53-6.24 6.53-9.77 9.52-1.95 1.63-1.95 1.63-4.17 3.98-1.62 1.56-1.62 1.56-3.62 1.56-0.278 1.05-0.278 1.05-0.562 2.12-1.71 3.41-3.71 5.03-6.64 7.4-2.44 2-4.6 4.22-6.8 6.47-2.46 2.52-4.82 4.86-7.62 7-2.46 1.84-2.46 1.84-3.69 4.31-2.1 3.34-4.7 5.46-7.7 7.99-2.47 2.1-4.73 4.37-6.99 6.7-2.55 2.55-5.11 5.1-7.69 7.62-2.43 2.35-2.43 2.35-4.31 5.38h-2c-0.34 0.835-0.34 0.835-0.688 1.69-2.87 5.06-7.77 8.78-12.3 12.3h-2c-0.247 0.804-0.495 1.61-0.75 2.44-0.413 0.846-0.825 1.69-1.25 2.56-1.32 0.372-2.66 0.706-4 1-1.07 1.8-1.07 1.8-2 4-2.53 3.62-3.78 5.01-8 6-0.293 0.602-0.585 1.2-0.887 1.82-1.28 2.5-2.63 3.67-4.8 5.43-2.89 2.44-5.43 4.92-7.88 7.81-2.67 3.15-5.46 5.83-8.66 8.42-4.64 3.98-8.56 8.53-12.5 13.2-5.09 6.09-5.09 6.09-7.31 8.31-3.91-0.279-7.13-2.46-10-5-2.35-2.73-4.58-5.54-6.81-8.37-1.82-2.19-3.53-3.94-5.75-5.7-1.21-0.959-1.21-0.959-2.44-1.94v-2c-0.536-0.227-1.07-0.454-1.62-0.688-7-3.87-11.9-10-16.9-16.1-3.19-3.85-6.6-7.1-10.4-10.3-3.53-3.09-7.03-6.28-10.1-9.84v-2c-0.619-0.247-1.24-0.495-1.88-0.75-2.48-1.46-3.08-2.63-4.12-5.25h-2v-2c-0.99-0.33-1.98-0.66-3-1-1.69-1.64-3.35-3.31-5-5-1.86-1.58-3.74-3.13-5.64-4.67-0.447-0.44-0.895-0.879-1.36-1.33v-2h-2c-1.73-1.75-1.73-1.75-3.62-4-0.632-0.742-1.26-1.48-1.91-2.25-0.482-0.578-0.964-1.15-1.46-1.75 1.2-4.96 4.29-7.25 8.05-10.4 2.02-1.64 2.02-1.64 4.01-3.69 1.69-1.69 3.41-3.17 5.25-4.69 3.38-2.86 6.21-6.02 9.08-9.38 3.38-3.93 7.14-7.34 11-10.7 3.39-2.98 6.37-6.06 9.23-9.54 1.96-2.34 4.17-4.43 6.33-6.59 0.784-0.969 1.57-1.94 2.38-2.94 3.31-4.05 7.34-7.2 11.4-10.5 5.45-4.52 10-9.65 14.3-15.3 2.36-2.82 5.09-5.01 7.94-7.31 6.43-5.33 12-11.1 17.1-17.7 2.36-2.82 5.09-5.01 7.94-7.31 4.64-3.86 8.85-7.78 12.7-12.4 1.65-1.97 3.48-3.74 5.3-5.55 0.804-1.01 1.61-2.02 2.44-3.06 2.56-2.94 2.56-2.94 5-4.38 3.04-1.86 4.83-4.05 7.08-6.78 5.31-6.39 5.31-6.39 9.48-7.78 0.247-0.722 0.495-1.44 0.75-2.19 1.8-4.06 4.82-6.09 8.25-8.81 4.7-3.8 8.69-7.78 12.5-12.5 0.489-0.508 0.977-1.02 1.48-1.54h2c0.206-0.722 0.413-1.44 0.625-2.19 1.75-3.59 4.3-5.43 7.38-7.81 6.41-5.3 12-11 17-17.6 2.66-3.16 5.64-5.96 9-8.38h2c0.33-0.99 0.66-1.98 1-3 1.64-1.58 1.64-1.58 3.69-3.25 4.52-3.84 8.15-8.09 11.9-12.7l1.56-1.89c0.456-0.563 0.913-1.13 1.38-1.71 1.49-1.48 1.49-1.48 3.49-2.47 2.28-1.15 3.36-2.34 4.94-4.32 2.53-3.08 5.24-5.87 8.06-8.69 0.784-0.969 1.57-1.94 2.38-2.94 3.31-4.05 7.34-7.2 11.4-10.5 5.45-4.52 10-9.65 14.3-15.3 2.36-2.82 5.09-5.01 7.94-7.31 6.43-5.33 12-11.1 17.1-17.7 2.36-2.82 5.09-5.01 7.94-7.31 4.64-3.86 8.85-7.78 12.7-12.4 1.65-1.97 3.48-3.74 5.3-5.55 0.804-1.01 1.61-2.02 2.44-3.06 2.56-2.94 2.56-2.94 5-4.38 3.04-1.86 4.83-4.05 7.08-6.78 5.31-6.39 5.31-6.39 9.48-7.78 0.247-0.722 0.495-1.44 0.75-2.19 1.8-4.06 4.82-6.09 8.25-8.81 4.7-3.8 8.69-7.78 12.5-12.5 0.489-0.508 0.977-1.02 1.48-1.54h2c0.309-1.08 0.309-1.08 0.625-2.19 1.75-3.59 4.3-5.43 7.38-7.81 6.41-5.3 12-11 17-17.6 2.66-3.16 5.64-5.96 9-8.38h2c0.33-0.99 0.66-1.98 1-3 1.64-1.58 1.64-1.58 3.69-3.25 4.52-3.84 8.15-8.09 11.9-12.7 0.773-0.934 0.773-0.934 1.56-1.89 0.456-0.563 0.913-1.13 1.38-1.71 1.49-1.48 1.49-1.48 3.49-2.47 2.28-1.15 3.36-2.34 4.94-4.32 2.53-3.08 5.24-5.87 8.06-8.69 0.784-0.969 1.57-1.94 2.38-2.94 3.31-4.05 7.34-7.2 11.4-10.5 5.45-4.52 10-9.65 14.3-15.3 2.36-2.82 5.09-5.01 7.94-7.31 5.02-4.16 9.43-8.44 13.6-13.5 0.477-0.496 0.954-0.993 1.45-1.5h2c0.309-1.08 0.309-1.08 0.625-2.19 1.75-3.59 4.3-5.43 7.38-7.81 4.65-3.85 8.85-7.78 12.7-12.4 1.65-1.98 3.45-3.77 5.3-5.56 0.804-0.825 1.61-1.65 2.44-2.5 2.56-2.5 2.56-2.5 5-4.38 2.72-2.26 4.83-4.69 7.09-7.4 2.03-2.37 4.27-4.52 6.47-6.73 0.784-0.969 1.57-1.94 2.38-2.94 2.84-3.47 6.18-6.21 9.62-9.06 4.45-3.75 8.5-7.33 12-12 3.86-4.81 7.93-9.43 13-13h2c0.33-0.99 0.66-1.98 1-3 1.67-1.33 3.33-2.67 5-4 1.58-1.73 3.08-3.51 4.57-5.32 1.43-1.68 1.43-1.68 2.93-3.17 2.16-2.17 4.01-4.59 5.91-6.99 1.6-1.52 1.6-1.52 3.66-1.98 0.957-0.267 0.957-0.267 1.93-0.539 0.711-1.31 1.37-2.65 2-4 1.96-1.86 4.03-3.52 6.12-5.22 1.94-1.84 2.74-3.39 3.88-5.78 1.97-1.73 3.95-3.37 6-5 9.99-7.88 9.99-7.88 15-19-10.7-0.19-21.4-0.352-32.1-0.5-0.857-0.0119-1.71-0.0238-2.6-0.036-43-0.586-86-0.548-129-0.527-1.3 6.36e-4 -1.3 6.36e-4 -2.63 0.00129-22.6 0.0112-45.1 0.0316-67.7 0.0612-1.25-2.5-1.13-4.2-1.15-7-0.0107-1.59-0.0107-1.59-0.0217-3.2-0.00269-1.16-0.00538-2.33-0.00815-3.53-0.00657-1.22-0.0131-2.45-0.0199-3.71-0.0164-3.36-0.028-6.72-0.0362-10.1-0.00515-2.1-0.0112-4.2-0.0175-6.29-0.0191-6.56-0.0333-13.1-0.0416-19.7-0.00978-7.58-0.0361-15.2-0.0765-22.7-0.0301-5.86-0.045-11.7-0.0483-17.6-0.00235-3.5-0.0113-7-0.0365-10.5-0.0276-3.9-0.0235-7.8-0.0165-11.7-0.0192-1.74-0.0192-1.74-0.0388-3.52 0.0104-1.59 0.0104-1.59 0.021-3.22-0.00239-0.923-0.00478-1.85-0.00724-2.8 1.33-6.59 6.31-7.03 12.1-6.95zm224 135v2c0.66-0.33 1.32-0.66 2-1-0.66-0.33-1.32-0.66-2-1z"
    fill="#FDFDFD"
  />
  <path transform="translate(198,358)" d="m0 0h1v876h-1v-876z" fill="#FDFDFD" />
  <path transform="translate(332,342)" d="m0 0h1v666h-1v-666z" fill="#000002" />
  <path transform="translate(331,1042)" d="m0 0h1v82h-1v-82z" fill="#000002" />
  <path
    transform="translate(1399,1108)"
    d="m0 0h1v67h-2c-0.33-2.64-0.66-5.28-1-8h2v-59z"
    fill="#000002"
  />
  <path transform="translate(1399,400)" d="m0 0h1v49h-1v-49z" fill="#000002" />
  <path transform="translate(332,1158)" d="m0 0h1v23h-1v-23z" fill="#000002" />
  <path transform="translate(331,1211)" d="m0 0h1v22h-1v-22z" fill="#000002" />
  <path transform="translate(363,332)" d="m0 0h14v1h-14v-1z" fill="#000002" />
  <path transform="translate(1008,331)" d="m0 0h14v1h-14v-1z" fill="#000002" />
  <path transform="translate(1383,664)" d="m0 0h13v1h-13v-1z" fill="#000002" />
  <path transform="translate(391,331)" d="m0 0h13v1h-13v-1z" fill="#000002" />
  <path transform="translate(471,331)" d="m0 0h12v1h-12v-1z" fill="#000002" />
  <path transform="translate(950,332)" d="m0 0h8v1h-8v-1z" fill="#000002" />
  <path transform="translate(631,332)" d="m0 0h7v1h-7v-1z" fill="#000002" />
  <path transform="translate(661,331)" d="m0 0h7v1h-7v-1z" fill="#000002" />
  <path transform="translate(936,332)" d="m0 0h6v1h-6v-1z" fill="#000002" />
  <path transform="translate(1284,665)" d="m0 0h5v1h-5v-1z" fill="#000002" />
  <path transform="translate(310,1397)" d="m0 0 4 1z" fill="#000002" />
  <path transform="translate(332,1185)" d="m0 0 1 4z" fill="#000002" />
  <path transform="translate(1399,660)" d="m0 0 1 4z" fill="#000002" />
  <path transform="translate(798,327)" d="m0 0h2v2h-2v-2z" fill="#000002" />
  <path transform="translate(1280,1397)" d="m0 0c3 1 3 1 3 1z" fill="#000002" />
  <path
    transform="translate(1399,452)"
    d="m0 0c0.33 0.66 0.66 1.32 1 2-0.66-0.33-1.32-0.66-2-1 0.33-0.33 0.66-0.66 1-1z"
    fill="#545455"
  />
  <path transform="translate(1158,332)" d="m0 0c3 1 3 1 3 1z" fill="#000002" />
  <path
    transform="translate(799,261)"
    d="m0 0c0.33 0.66 0.66 1.32 1 2-0.66-0.33-1.32-0.66-2-1 0.33-0.33 0.66-0.66 1-1z"
    fill="#545455"
  />
  <path transform="translate(1253,1266)" d="m0 0 2 1z" fill="#FDFDFD" />
</svg>